<svg width="120" height="38" viewBox="0 0 120 38" fill="none" xmlns="http://www.w3.org/2000/svg">
<g clip-path="url(#clip0_10902_66393)">
<path d="M34.5722 26.9061C34.4035 26.4288 34.2062 25.9672 34.0184 25.5395C33.7292 24.8854 33.4345 24.2338 33.1344 23.5847L33.1109 23.534C30.4594 17.7565 27.683 12.038 24.7836 6.38253L24.6596 6.14084C24.3581 5.54763 24.0514 4.95715 23.7394 4.36947C23.3651 3.62244 22.911 2.91871 22.3852 2.27074C21.793 1.55947 21.0531 0.987603 20.2177 0.595438C19.3818 0.203117 18.4708 -0.000122271 17.5486 5.51868e-08C16.6264 0.000122381 15.7154 0.203603 14.8796 0.596146C14.0443 0.988507 13.3046 1.56053 12.7126 2.27192C12.1875 2.92001 11.7339 3.62355 11.3595 4.37018C11.0447 4.96329 10.7352 5.55919 10.4309 6.15784L10.3161 6.38206C7.41674 12.0378 4.64022 17.7566 1.9885 23.5342L1.95053 23.6168C1.65556 24.2552 1.36579 24.8961 1.08123 25.5393C0.893733 25.9667 0.696624 26.4281 0.52764 26.9065C0.0434877 28.2096 -0.110843 29.6135 0.0785771 30.9917C0.279717 32.3848 0.839164 33.7008 1.70139 34.8089C2.56443 35.9178 3.69989 36.7806 4.99553 37.3122C5.97482 37.7109 7.02151 37.9148 8.0778 37.9126C8.40998 37.9126 8.74108 37.8932 9.07108 37.8543C10.407 37.6832 11.6956 37.2454 12.8614 36.5666C14.3902 35.7015 15.9003 34.4338 17.5498 32.6224C19.1994 34.4338 20.7092 35.7015 22.2383 36.5663C23.4041 37.2452 24.6927 37.6831 26.0286 37.8543C26.3583 37.8929 26.6899 37.9123 27.0219 37.9126C28.0782 37.915 29.1249 37.7111 30.1039 37.3122C31.3996 36.7807 32.5352 35.9178 33.3983 34.8089C34.2605 33.7008 34.8199 32.3848 35.0211 30.9917C35.2103 29.6134 35.056 28.2094 34.5722 26.9061ZM17.5498 28.8809C15.5077 26.2742 14.1976 23.8536 13.7377 21.8245C13.5491 21.0642 13.5046 20.2749 13.6065 19.498C13.6868 18.9283 13.8947 18.3844 14.2142 17.9074C14.6076 17.3937 15.113 16.9778 15.6912 16.6919C16.2698 16.406 16.9057 16.2574 17.5501 16.2575C18.1946 16.2576 18.8304 16.4063 19.4089 16.6923C19.9871 16.9783 20.4923 17.3942 20.8857 17.9079C21.2053 18.3849 21.4131 18.9289 21.4934 19.4987C21.5947 20.2759 21.55 21.0653 21.3617 21.8259C20.9014 23.855 19.5915 26.2749 17.5498 28.8809ZM32.6361 30.6485C32.4955 31.6225 32.1044 32.5425 31.5015 33.3172C30.8981 34.0927 30.1041 34.696 29.198 35.0676C28.2814 35.4374 27.287 35.5684 26.3068 35.4485C25.288 35.3163 24.3062 34.9786 23.42 34.4556C22.059 33.6856 20.6813 32.5036 19.1309 30.7696C21.5989 27.7053 23.1401 24.8807 23.7106 22.3647C23.9672 21.3069 24.0228 20.2098 23.8747 19.1312C23.7399 18.2017 23.3974 17.3152 22.873 16.5384C22.258 15.7 21.4561 15.0187 20.5318 14.5495C19.607 14.0799 18.5857 13.8354 17.5501 13.8354C16.5144 13.8354 15.4931 14.0799 14.5683 14.5495C13.644 15.0185 12.842 15.6997 12.2269 16.538C11.7027 17.3145 11.3602 18.2007 11.2252 19.1298C11.0769 20.208 11.1322 21.3048 11.3883 22.3624C11.9586 24.8791 13.4998 27.7045 15.9685 30.7698C14.4183 32.5036 13.0407 33.6856 11.6797 34.4558C10.7934 34.9787 9.81162 35.3164 8.79287 35.4485C7.81257 35.5684 6.81807 35.4374 5.90139 35.0676C4.99561 34.6958 4.20176 34.0926 3.59819 33.3175C2.99531 32.5427 2.60423 31.6226 2.46381 30.6485C2.32894 29.6586 2.44389 28.6504 2.79803 27.7171C2.93256 27.3356 3.0903 26.9618 3.28553 26.5171C3.56477 25.8861 3.84908 25.2574 4.13842 24.631L4.17639 24.5479C6.81353 18.8025 9.57481 13.1156 12.4583 7.49138L12.5736 7.26597C12.8689 6.68936 13.174 6.09293 13.482 5.51679C13.7768 4.92284 14.1334 4.36212 14.5458 3.84408C14.912 3.39945 15.371 3.04158 15.8901 2.79593C16.4092 2.55028 16.9758 2.4229 17.5494 2.42285C18.123 2.42281 18.6895 2.5501 19.2087 2.79567C19.7279 3.04123 20.1869 3.39904 20.5531 3.84361C20.9659 4.36121 21.3226 4.92172 21.6172 5.51561C21.9221 6.08679 22.2247 6.6778 22.5174 7.24921L22.6416 7.49161C25.5251 13.1158 28.2863 18.8028 30.9233 24.5484L30.9467 24.5994C31.235 25.2279 31.5333 25.8775 31.8141 26.5173C32.0096 26.9625 32.1676 27.3368 32.3019 27.7168C32.656 28.6502 32.7709 29.6583 32.6361 30.6482M49.0407 28.5757C48.1008 28.5757 47.236 28.386 46.4462 28.0067C45.6563 27.6271 44.9797 27.0956 44.378 26.4128C43.7764 25.73 43.3252 24.9329 42.9865 24.0598C42.6481 23.149 42.4976 22.1622 42.4976 21.0999C42.4976 20.0375 42.6858 19.0125 43.0243 18.1016C43.3627 17.1908 43.8516 16.394 44.4533 15.6729C45.0549 14.9899 45.7693 14.4206 46.5966 14.0411C47.424 13.6615 48.2888 13.4718 49.2666 13.4718C50.2065 13.4718 51.0338 13.6615 51.7862 14.0791C52.5383 14.4586 53.1399 15.0279 53.6286 15.7487L53.7415 13.8893H57.2009V28.1964H53.7415L53.6286 26.1093C53.1399 26.8681 52.5005 27.4754 51.6732 27.9307C50.9211 28.3484 50.0185 28.5759 49.0409 28.5759M49.9437 25.1607C50.6206 25.1607 51.2222 24.9709 51.7864 24.6294C52.3128 24.2498 52.7262 23.7566 53.0649 23.1495C53.3656 22.5422 53.5161 21.8212 53.5161 21.0241C53.5161 20.227 53.3656 19.506 53.0649 18.8989C52.764 18.2916 52.3126 17.7983 51.7864 17.4191C51.2598 17.0393 50.6206 16.8875 49.9437 16.8875C49.2669 16.8875 48.6652 17.0773 48.1011 17.4188C47.5747 17.7983 47.161 18.2916 46.8226 18.8987C46.5216 19.506 46.3712 20.227 46.3712 21.0241C46.3712 21.8212 46.5216 22.5422 46.8226 23.1493C47.1233 23.7566 47.5747 24.2498 48.1011 24.6291C48.6652 24.9709 49.2669 25.1607 49.9437 25.1607ZM63.1053 10.0185C63.1053 10.436 63.0301 10.8155 62.8419 11.1191C62.6469 11.4354 62.3751 11.6967 62.0523 11.8781C61.7138 12.0679 61.3379 12.1437 60.9619 12.1437C60.586 12.1437 60.2096 12.0679 59.8712 11.8781C59.5483 11.6967 59.2766 11.4354 59.0815 11.1191C58.8936 10.7776 58.8183 10.436 58.8183 10.0185C58.8183 9.6012 58.8933 9.22167 59.0815 8.91791C59.2695 8.57638 59.5327 8.34886 59.8714 8.15909C60.2096 7.96933 60.5858 7.89333 60.9619 7.89333C61.3381 7.89333 61.7138 7.96933 62.0523 8.15909C62.3752 8.34047 62.647 8.6016 62.8421 8.91791C62.9923 9.22167 63.1053 9.5632 63.1053 10.0185ZM59.0815 28.1587V13.8513H62.8419V28.1584L59.0815 28.1587ZM72.8825 17.6083V17.6466C72.6945 17.5706 72.4688 17.5326 72.2806 17.4948C72.0551 17.4568 71.8669 17.4568 71.6415 17.4568C70.5884 17.4568 69.7988 17.7603 69.2724 18.4056C68.7083 19.0507 68.4451 19.9615 68.4451 21.1379V28.1587H64.6848V13.8513H68.1441L68.2571 16.0145C68.633 15.2554 69.0844 14.6861 69.7236 14.2688C70.3252 13.8511 71.0396 13.6615 71.8669 13.6615C72.1304 13.6615 72.3936 13.6993 72.6193 13.7373C72.7318 13.7753 72.807 13.7753 72.8825 13.8133V17.6083ZM74.3865 28.1587V7.96909H78.147V15.6729C78.6734 14.9901 79.2751 14.4586 80.0272 14.0413C80.7795 13.6618 81.6069 13.434 82.5467 13.434C83.4867 13.434 84.3516 13.6238 85.1412 14.0033C85.9311 14.3828 86.608 14.9141 87.2096 15.5972C87.8115 16.2802 88.2626 17.0773 88.6011 17.9503C88.9395 18.8609 89.0898 19.8475 89.0898 20.9101C89.0898 21.9729 88.9018 22.9975 88.5636 23.9083C88.2249 24.8191 87.7362 25.616 87.1344 26.337C86.5327 27.0203 85.8183 27.5894 84.991 27.9689C84.1637 28.3484 83.2988 28.5382 82.3212 28.5382C81.3809 28.5382 80.5538 28.3484 79.8017 27.9309C79.0494 27.5514 78.4477 26.9821 77.959 26.2613L77.8461 28.1207L74.3865 28.1587ZM81.6441 25.1607C82.3212 25.1607 82.9229 24.9709 83.4868 24.6294C84.0132 24.2498 84.4269 23.7566 84.7653 23.1495C85.0662 22.5422 85.2167 21.8212 85.2167 21.0241C85.2167 20.227 85.0662 19.506 84.7653 18.8989C84.4269 18.2916 84.0132 17.7983 83.4868 17.4191C82.9604 17.0393 82.3212 16.8875 81.6441 16.8875C80.9672 16.8875 80.3656 17.0773 79.8017 17.4188C79.2751 17.7983 78.8614 18.2916 78.523 18.8987C78.2223 19.506 78.0718 20.227 78.0718 21.0241C78.0718 21.8212 78.2223 22.5422 78.523 23.1493C78.8239 23.7566 79.2753 24.2498 79.8017 24.6291C80.3656 24.9709 80.9672 25.1607 81.6441 25.1607ZM90.519 28.1587V13.8513H93.9783L94.0913 15.7109C94.505 15.0276 95.0689 14.4964 95.7835 14.0791C96.4979 13.6615 97.3252 13.4718 98.2655 13.4718C99.3183 13.4718 100.221 13.7373 100.973 14.2308C101.763 14.7241 102.364 15.4452 102.778 16.356C103.192 17.2668 103.417 18.3672 103.417 19.6197V28.1964H99.6568V20.113C99.6568 19.1265 99.4311 18.3294 98.9799 17.7599C98.5287 17.1911 97.9269 16.8873 97.1373 16.8873C96.5731 16.8873 96.0842 17.0011 95.633 17.2668C95.2194 17.5323 94.8809 17.8739 94.6177 18.3674C94.3545 18.8227 94.2418 19.3917 94.2418 19.9613V28.1584L90.519 28.1587ZM105.297 28.1587V7.96909H109.058V15.6729C109.584 14.9901 110.186 14.4586 110.938 14.0413C111.69 13.6618 112.518 13.434 113.457 13.434C114.398 13.434 115.263 13.6238 116.052 14.0033C116.842 14.3828 117.519 14.9141 118.12 15.5972C118.723 16.2802 119.173 17.0773 119.512 17.9503C119.851 18.8609 120 19.8475 120 20.9101C120 21.9729 119.813 22.9975 119.474 23.9083C119.136 24.8191 118.647 25.616 118.045 26.337C117.443 27.0203 116.729 27.5894 115.902 27.9689C115.074 28.3484 114.21 28.5382 113.232 28.5382C112.292 28.5382 111.465 28.3484 110.712 27.9309C109.96 27.5514 109.359 26.9821 108.87 26.2613L108.757 28.1207L105.297 28.1587ZM112.593 25.1607C113.27 25.1607 113.871 24.9709 114.435 24.6294C114.962 24.2498 115.375 23.7566 115.714 23.1495C116.015 22.5422 116.165 21.8212 116.165 21.0241C116.165 20.227 116.015 19.506 115.714 18.8989C115.413 18.2916 114.962 17.7983 114.435 17.4191C113.909 17.0393 113.27 16.8875 112.593 16.8875C111.916 16.8875 111.314 17.0773 110.75 17.4188C110.224 17.7983 109.81 18.2916 109.471 18.8987C109.133 19.506 109.02 20.227 109.02 21.0241C109.02 21.8212 109.171 22.5422 109.471 23.1493C109.772 23.7566 110.224 24.2498 110.75 24.6291C111.314 24.9709 111.878 25.1607 112.593 25.1607Z" fill="#363636"/>
</g>
<defs>
<clipPath id="clip0_10902_66393">
<rect width="120" height="38" fill="white"/>
</clipPath>
</defs>
</svg>
