<svg width="120" height="24" viewBox="0 0 120 24" fill="none" xmlns="http://www.w3.org/2000/svg">
<path d="M82.2931 0.5V15.2186C82.2931 17.5441 83.6481 18.5259 85.772 18.5259C86.3628 18.5259 86.7473 18.4669 86.9226 18.4087V16.4564C86.66 16.4817 86.5128 16.4817 86.2746 16.4817C85.2994 16.4817 84.5342 16.0785 84.5342 14.9326V0.500937L82.2931 0.5ZM36.0547 0.932294C35.1432 0.932294 34.4905 1.47805 34.4905 2.4561C34.4905 3.43415 35.1432 3.97991 36.0547 3.97991C36.9708 3.97991 37.6188 3.40508 37.6188 2.4561C37.6188 1.47805 36.9708 0.932294 36.0547 0.932294ZM90.2272 0.932294C89.3148 0.932294 88.663 1.47805 88.663 2.4561C88.663 3.43415 89.3148 3.97991 90.2272 3.97991C91.1424 3.97991 91.7913 3.40508 91.7913 2.4561C91.7913 1.47805 91.1424 0.932294 90.2272 0.932294ZM29.5056 1.82313V13.5222C29.5056 15.1886 28.8239 16.3391 26.8499 16.3391C25.9929 16.3391 25.1395 16.1966 24.4287 15.9069V18.1227C25.0767 18.3534 26.0257 18.5512 27.2344 18.5512C30.4508 18.5512 31.8349 16.4226 31.8349 13.3797V1.8222L29.5056 1.82313ZM71.0769 1.82313L64.3515 18.4378H66.9772L68.3922 14.7019C69.8391 14.9579 71.1679 15.1332 72.4947 15.1332C73.8535 15.1332 75.1795 14.9907 76.7145 14.6728L78.1314 18.4378H80.758L74.0289 1.8222L71.0769 1.82313ZM0 2.79274C0 5.85911 2.48029 8.35628 5.5204 8.35628H10.6226V13.5363H16.1392V3.7164C16.1392 3.24004 15.7548 2.82275 15.2859 2.82275L0 2.79274ZM10.6226 13.5363H5.5204V8.35628H0V18.1808C0 18.6572 0.384468 19.0707 0.853332 19.0707H16.1102C16.1122 17.6104 15.5362 16.2086 14.5079 15.1716C13.4797 14.1346 12.0829 13.5467 10.6226 13.5363ZM72.5529 3.66014L76.0075 12.7749C74.6815 12.9755 73.5563 13.089 72.4647 13.1181C71.4361 13.1181 70.3699 13.0008 69.1021 12.7992L72.5529 3.66014ZM53.6999 5.52903C50.0699 5.52903 48.2423 8.54664 48.2423 12.1119C48.2423 15.8468 49.9855 18.6938 53.4354 18.6938C55.4431 18.6938 57.0035 17.833 57.8315 16.1657V18.4331H60.0727V5.79066H57.8315V8.00651C57.0654 6.36548 55.5856 5.53372 53.6999 5.53372V5.52903ZM99.3147 5.52903C95.7176 5.52903 93.9152 8.54664 93.9152 12.1119C93.9152 15.8468 95.6266 18.6938 99.0512 18.6938C101.058 18.6938 102.619 17.833 103.446 16.1657V17.3706C103.446 19.73 102.326 21.4263 99.0802 21.4263C97.4861 21.4263 95.9811 21.1366 94.5679 20.679V22.8029C95.8348 23.2061 97.0144 23.4959 99.1975 23.4959C103.832 23.4959 105.63 20.994 105.63 17.2872V5.78972H103.446V8.00275C102.677 6.36455 101.205 5.53278 99.3147 5.53278V5.52903ZM115.311 5.55716C113.567 5.55716 112.033 6.39268 111.209 7.88742V5.81879H108.968V18.464H111.209V11.4236C111.209 8.8664 112.652 7.51514 114.718 7.51514C116.843 7.51514 117.787 8.51851 117.787 10.7934V18.434H120V11.0494C120 7.57046 118.29 5.56279 115.311 5.56279V5.55716ZM46.8976 5.57217C44.6593 5.57592 43.4721 6.60179 42.7547 8.00088V5.78784H40.5717V18.4378H42.7547V10.9641C42.7547 8.26157 44.4942 7.42887 47.359 7.71581V5.58717C47.2053 5.57976 47.0515 5.57601 46.8976 5.57592V5.57217ZM34.9341 5.78784V18.4331H37.1753V5.79066L34.9341 5.78784ZM89.0766 5.78784V18.4331H91.3177V5.79066L89.0766 5.78784ZM54.2597 7.53952C56.1792 7.53952 57.8024 8.77732 57.8024 11.5943V12.6023C57.8024 15.4183 56.0329 16.6533 54.0253 16.6533C51.725 16.6533 50.4835 15.1585 50.4544 12.0819C50.4544 9.15147 51.7541 7.53952 54.2597 7.53952ZM99.8792 7.53952C101.795 7.53952 103.417 8.77732 103.417 11.5943V12.6023C103.417 15.4183 101.648 16.6533 99.641 16.6533C97.3408 16.6533 96.102 15.1585 96.0692 12.0819C96.0692 9.15147 97.3698 7.53952 99.8792 7.53952Z" fill="#363636"/>
</svg>
