<svg width="92" height="24" viewBox="0 0 92 24" fill="none" xmlns="http://www.w3.org/2000/svg">
<path d="M1.72564 20.9337H6.58728V6.96133C6.58728 6.41989 6.60387 5.85083 6.63706 5.25414L3.18579 8.13812C3.04199 8.25967 2.89265 8.34254 2.73779 8.38674C2.59398 8.43094 2.45018 8.45304 2.30638 8.45304C2.08514 8.45304 1.8805 8.40884 1.69245 8.32044C1.51546 8.22099 1.38272 8.1105 1.29423 7.98895L0 6.21547L7.31736 0H10.6857V20.9337H14.9998V24H1.72564V20.9337Z" fill="white"/>
<path d="M38.5592 14.9669H41.5791V17.337C41.5791 17.558 41.5072 17.7514 41.3634 17.9171C41.2196 18.0718 41.0094 18.1492 40.7329 18.1492H38.5592V24H34.9752V18.1492H24.8537C24.5772 18.1492 24.3338 18.0663 24.1236 17.9006C23.9135 17.7238 23.7807 17.5083 23.7254 17.2541L23.3106 15.1823L34.6766 0.0165754H38.5592V14.9669ZM34.9752 7.12707C34.9752 6.77348 34.9863 6.39227 35.0084 5.98343C35.0305 5.57459 35.0692 5.14917 35.1246 4.70718L27.6745 14.9669H34.9752V7.12707Z" fill="white"/>
<path d="M64.226 14.9669H67.2458V17.337C67.2458 17.558 67.174 17.7514 67.0301 17.9171C66.8863 18.0718 66.6762 18.1492 66.3996 18.1492H64.226V24H60.642V18.1492H50.5205C50.2439 18.1492 50.0006 18.0663 49.7904 17.9006C49.5802 17.7238 49.4475 17.5083 49.3922 17.2541L48.9773 15.1823L60.3433 0.0165754H64.226V14.9669ZM60.642 7.12707C60.642 6.77348 60.653 6.39227 60.6752 5.98343C60.6973 5.57459 60.736 5.14917 60.7913 4.70718L53.3412 14.9669H60.642V7.12707Z" fill="white"/>
<path d="M78.7259 20.9337H83.5875V6.96133C83.5875 6.41989 83.6041 5.85083 83.6373 5.25414L80.186 8.13812C80.0422 8.25967 79.8929 8.34254 79.738 8.38674C79.5942 8.43094 79.4504 8.45304 79.3066 8.45304C79.0854 8.45304 78.8808 8.40884 78.6927 8.32044C78.5157 8.22099 78.383 8.1105 78.2945 7.98895L77.0003 6.21547L84.3176 0H87.6859V20.9337H92V24H78.7259V20.9337Z" fill="white"/>
</svg>
