<svg width="62" height="17" viewBox="0 0 62 17" fill="none" xmlns="http://www.w3.org/2000/svg">
<path d="M1.65181 14.4321H4.87481V5.15906C4.87481 4.79973 4.88581 4.42206 4.90781 4.02606L2.61981 5.94006C2.52448 6.02073 2.42548 6.07573 2.32281 6.10506C2.22748 6.1344 2.13215 6.14906 2.03681 6.14906C1.89015 6.14906 1.75448 6.11973 1.62981 6.06106C1.51248 5.99506 1.42448 5.92173 1.36581 5.84106L0.507812 4.66406L5.35881 0.539062H7.59181V14.4321H10.4518V16.4671H1.65181V14.4321Z" fill="#363636"/>
<path d="M26.0704 10.4721H28.0724V12.0451C28.0724 12.1917 28.0248 12.3201 27.9294 12.4301C27.8341 12.5327 27.6948 12.5841 27.5114 12.5841H26.0704V16.4671H23.6944V12.5841H16.9844C16.8011 12.5841 16.6398 12.5291 16.5004 12.4191C16.3611 12.3017 16.2731 12.1587 16.2364 11.9901L15.9614 10.6151L23.4964 0.550063H26.0704V10.4721ZM23.6944 5.26906C23.6944 5.0344 23.7018 4.7814 23.7164 4.51006C23.7311 4.23873 23.7568 3.9564 23.7934 3.66306L18.8544 10.4721H23.6944V5.26906Z" fill="#363636"/>
<path d="M43.0861 10.4721H45.0881V12.0451C45.0881 12.1917 45.0404 12.3201 44.9451 12.4301C44.8497 12.5327 44.7104 12.5841 44.5271 12.5841H43.0861V16.4671H40.7101V12.5841H34.0001C33.8167 12.5841 33.6554 12.5291 33.5161 12.4191C33.3767 12.3017 33.2887 12.1587 33.2521 11.9901L32.9771 10.6151L40.5121 0.550063H43.0861V10.4721ZM40.7101 5.26906C40.7101 5.0344 40.7174 4.7814 40.7321 4.51006C40.7467 4.23873 40.7724 3.9564 40.8091 3.66306L35.8701 10.4721H40.7101V5.26906Z" fill="#363636"/>
<path d="M52.6987 14.4321H55.9217V5.15906C55.9217 4.79973 55.9327 4.42206 55.9547 4.02606L53.6667 5.94006C53.5714 6.02073 53.4724 6.07573 53.3697 6.10506C53.2744 6.1344 53.179 6.14906 53.0837 6.14906C52.937 6.14906 52.8014 6.11973 52.6767 6.06106C52.5594 5.99506 52.4714 5.92173 52.4127 5.84106L51.5547 4.66406L56.4057 0.539062H58.6387V14.4321H61.4987V16.4671H52.6987V14.4321Z" fill="#363636"/>
</svg>
