<svg width="120" height="24" viewBox="0 0 120 24" fill="none" xmlns="http://www.w3.org/2000/svg">
<g clip-path="url(#clip0_10902_23597)">
<path d="M2.48786 18.1314C2.04576 18.1324 1.61134 18.016 1.22896 17.7941C0.846588 17.5721 0.52997 17.2527 0.311452 16.8684C0.0962416 16.4868 -0.011106 16.0539 0.000908459 15.6159C0.0129229 15.178 0.143847 14.7516 0.379655 14.3824L4.86184 7.3441C5.09122 6.96581 5.4169 6.65518 5.80561 6.44395C6.19433 6.23271 6.63214 6.12843 7.07434 6.14176C7.51623 6.15234 7.94737 6.28014 8.32365 6.51207C8.69992 6.744 9.00782 7.07175 9.21583 7.46176C9.42072 7.84876 9.51642 8.28422 9.49268 8.72147C9.46894 9.15871 9.32665 9.58125 9.08106 9.94379L4.60169 16.9828C4.3745 17.3367 4.06163 17.6276 3.69207 17.8285C3.32251 18.0293 2.90823 18.1336 2.48762 18.1317L2.48786 18.1314Z" fill="#363636"/>
<path d="M10.1747 18.1314C9.27067 18.1314 8.43887 17.6481 8.002 16.8711C7.78732 16.4906 7.68027 16.0588 7.69232 15.622C7.70438 15.1853 7.83509 14.76 8.07043 14.3919L12.544 7.36957C12.7699 6.98594 13.0944 6.66976 13.4838 6.45381C13.8732 6.23786 14.3132 6.13001 14.7583 6.14145C15.67 6.1616 16.4962 6.6716 16.9141 7.46918C17.118 7.85983 17.2107 8.29896 17.1822 8.73869C17.1537 9.17842 17.005 9.60189 16.7524 9.96293L12.28 16.985C12.0536 17.3375 11.742 17.6272 11.374 17.8275C11.0061 18.0278 10.5936 18.1325 10.1747 18.1314Z" fill="#363636"/>
<path d="M17.6944 18.1902C18.9689 18.1902 20.002 17.1787 20.002 15.931C20.002 14.6833 18.9689 13.6719 17.6944 13.6719C16.4199 13.6719 15.3867 14.6833 15.3867 15.931C15.3867 17.1787 16.4199 18.1902 17.6944 18.1902Z" fill="#363636"/>
<path d="M117.94 13.8019C118.637 13.8019 119.053 14.2976 119.053 15.1095V17.8917H120V15.0457C120 13.6652 119.35 12.8646 118.127 12.8646C117.648 12.8646 116.888 12.9956 116.435 13.8759C116.33 13.6163 116.157 13.3899 115.933 13.221C115.71 13.0521 115.444 12.9469 115.166 12.9166C114.99 12.8846 114.812 12.8741 114.634 12.8855C114.245 12.9166 113.551 13.159 113.292 13.7077V12.9698H112.344V17.8917H113.292V15.2358C113.292 14.2024 113.968 13.8019 114.645 13.8019C115.28 13.8019 115.697 14.287 115.697 15.0989V17.8917H116.639V15.2358C116.639 14.4131 117.132 13.7923 117.939 13.8019H117.94ZM108.866 17.0693C109.081 17.0737 109.294 17.0336 109.493 16.9516C109.691 16.8695 109.871 16.7473 110.02 16.5926C110.17 16.4367 110.288 16.2521 110.365 16.0497C110.442 15.8474 110.477 15.6315 110.469 15.4151C110.469 14.4237 109.74 13.8019 108.866 13.8019C107.992 13.8019 107.263 14.4237 107.263 15.4151C107.254 15.6309 107.289 15.8462 107.366 16.0481C107.443 16.2499 107.56 16.4342 107.709 16.5898C107.858 16.7444 108.036 16.8668 108.234 16.9493C108.432 17.0318 108.644 17.0726 108.859 17.0693H108.866ZM108.866 17.9923C107.482 17.9923 106.326 16.9697 106.326 15.4095C106.326 13.8492 107.481 12.8588 108.866 12.8588C110.251 12.8588 111.416 13.8492 111.416 15.4095C111.416 16.9697 110.244 17.997 108.86 17.997L108.866 17.9923ZM101.45 15.4095L101.44 15.4151C101.44 13.8548 102.626 12.8646 104.02 12.8588C104.37 12.852 104.718 12.9188 105.041 13.0549C105.364 13.191 105.654 13.3933 105.894 13.6488L105.176 14.2605C105.023 14.1108 104.843 13.9927 104.644 13.9132C104.446 13.8336 104.234 13.7941 104.02 13.797C103.147 13.797 102.387 14.419 102.387 15.4095C102.387 16.0788 102.785 16.6821 103.396 16.9383C103.694 17.0633 104.023 17.096 104.341 17.032C104.658 16.9681 104.949 16.8104 105.176 16.5795L105.904 17.1909C105.664 17.4491 105.372 17.6539 105.047 17.792C104.723 17.93 104.373 17.9984 104.02 17.9925C102.637 17.9925 101.45 16.9697 101.45 15.4095ZM98.4177 16.947C98.4157 16.7732 98.4828 16.6057 98.6042 16.4815C98.7256 16.3572 98.8915 16.2862 99.0652 16.2841C99.239 16.2862 99.4048 16.3572 99.5263 16.4815C99.6477 16.6057 99.7148 16.7732 99.7128 16.947C99.7043 17.1136 99.6326 17.2706 99.5122 17.3862C99.3919 17.5017 99.232 17.567 99.0652 17.5688C98.8984 17.567 98.7386 17.5017 98.6182 17.3862C98.4979 17.2706 98.4262 17.1136 98.4177 16.947ZM101.008 6.71297H97.636L95.2726 12.8067L92.9213 6.71297H89.5491L93.6486 16.342L91.0991 22.7081H94.4464L101.008 6.71297ZM80.5004 12.0687C80.5004 13.6071 81.845 14.6194 83.1659 14.6194C84.4641 14.6194 85.7394 13.6772 85.7394 12.0677C85.7394 10.4583 84.4641 9.51539 83.1659 9.51539C81.845 9.51539 80.5004 10.5286 80.5004 12.0677V12.0687ZM85.7394 17.4452V16.227C85.0557 17.2622 83.4603 17.6534 82.6419 17.6534C79.9316 17.6534 77.2205 15.5168 77.2205 12.0677C77.2205 8.61984 79.9306 6.48305 82.6416 6.48305C83.3246 6.48305 84.9198 6.71109 85.7394 7.90758V6.71695H88.8826V17.4473L85.7396 17.4464V17.4455L85.7394 17.4452ZM76.3259 17.4452H73.183V16.1121C72.6577 17.0998 71.3841 17.6754 70.0623 17.6754C67.3285 17.6754 64.9135 15.492 64.9135 12.1113C64.9135 8.66719 67.3285 6.48117 70.0623 6.48117C71.3823 6.48117 72.6596 7.03195 73.1827 8.02055V0.867188H76.3259V17.4452ZM73.1143 12.0441C73.1143 10.4353 71.953 9.49242 70.655 9.49242C69.3104 9.49242 68.1936 10.5037 68.1936 12.0441C68.1936 13.6336 69.3104 14.6402 70.6541 14.6402C71.9769 14.6421 73.1143 13.5844 73.1143 12.0441ZM57.1421 11.7668C57.1421 10.1355 57.9854 9.58359 59.101 9.58359C60.1712 9.58359 60.9463 10.2959 60.9463 11.7202V17.4436H64.1122V11.0318C64.1122 7.97602 62.608 6.48117 60.2159 6.48117C58.9634 6.48117 57.7109 7.19367 57.1409 8.27414V6.71297H53.9769V17.4436H57.1421V11.7668ZM47.5482 17.6278C44.5416 17.6278 42.0338 15.4219 42.0338 12.0431C42.0338 8.6625 44.5388 6.47836 47.5482 6.47836C50.5576 6.47836 53.0841 8.6625 53.0841 12.0431C53.0841 15.4237 50.5545 17.6287 47.5482 17.6287V17.6278ZM47.5482 14.5036C48.8682 14.5036 49.963 13.5368 49.963 12.0441C49.963 10.5959 48.8691 9.60727 47.5482 9.60727C47.2301 9.60232 46.9144 9.66217 46.6202 9.78317C46.326 9.90418 46.0596 10.0838 45.837 10.3111C45.6132 10.5396 45.4376 10.8107 45.3206 11.1084C45.2037 11.4061 45.1477 11.7243 45.1562 12.0441C45.1571 13.5387 46.25 14.5036 47.5482 14.5036ZM36.3577 9.58453C37.2912 9.58453 38.1118 10.3205 38.1118 11.7211V17.4455H41.2548V11.3508C41.2548 8.11078 39.6795 6.4793 37.1544 6.4793C36.4044 6.4793 34.9911 6.70734 33.9657 8.38617C33.3732 7.14492 32.2346 6.50109 30.5518 6.50109C29.9676 6.49813 29.3948 6.6635 28.9021 6.97743C28.4094 7.29136 28.0175 7.74056 27.7733 8.27133V6.71391H24.6055V17.4445H27.7705V11.7668C27.7705 10.1355 28.6592 9.58359 29.6155 9.58359C30.5272 9.58359 31.3459 10.2959 31.3695 11.652V17.4445H34.5355V11.7668C34.5355 10.2066 35.3558 9.58547 36.3577 9.58547V9.58453Z" fill="#363636"/>
</g>
<defs>
<clipPath id="clip0_10902_23597">
<rect width="120" height="22.2656" fill="white" transform="translate(0 0.867188)"/>
</clipPath>
</defs>
</svg>
