<svg width="354" height="484" viewBox="0 0 354 484" fill="none" xmlns="http://www.w3.org/2000/svg">
<g opacity="0.3">
<path d="M225.79 34.3984C349.19 34.3984 449.592 134.796 449.592 258.2C449.592 381.604 349.194 482.002 225.79 482.002C102.386 482.002 1.99219 381.604 1.99219 258.2C1.99219 134.796 102.386 34.3984 225.79 34.3984Z" stroke="#3D3D3D" stroke-width="3" stroke-miterlimit="10"/>
<path d="M187.862 -118C285.911 -118 365.677 -38.2299 365.677 59.8152C365.677 157.86 285.911 237.63 187.862 237.63C89.8126 237.63 10.0469 157.86 10.0469 59.8152C10.0469 -38.2299 89.8169 -118 187.862 -118Z" stroke="#3D3D3D" stroke-width="3" stroke-miterlimit="10"/>
<path d="M456.007 20.4375C554.052 20.4375 633.817 100.203 633.817 198.248C633.817 296.294 554.052 376.064 456.007 376.064C357.961 376.064 278.191 296.298 278.191 198.24C278.191 100.182 357.957 20.4375 456.007 20.4375Z" stroke="#3D3D3D" stroke-width="3" stroke-miterlimit="10"/>
</g>
</svg>
