<svg width="492" height="330" viewBox="0 0 492 330" fill="none" xmlns="http://www.w3.org/2000/svg">
<g opacity="0.3">
<path d="M81.7898 154.398C205.19 154.398 305.592 254.796 305.592 378.2C305.592 501.604 205.194 602.002 81.7898 602.002C-41.6142 602.002 -142.008 501.604 -142.008 378.2C-142.008 254.796 -41.6142 154.398 81.7898 154.398Z" stroke="#3D3D3D" stroke-width="3" stroke-miterlimit="10"/>
<path d="M43.862 2C141.911 2 221.677 81.7701 221.677 179.815C221.677 277.86 141.911 357.63 43.862 357.63C-54.1874 357.63 -133.953 277.86 -133.953 179.815C-133.953 81.7701 -54.1831 2 43.862 2Z" stroke="#3D3D3D" stroke-width="3" stroke-miterlimit="10"/>
<path d="M312.007 140.438C410.052 140.437 489.817 220.203 489.817 318.248C489.817 416.294 410.052 496.064 312.007 496.064C213.961 496.064 134.191 416.298 134.191 318.24C134.191 220.182 213.957 140.438 312.007 140.438Z" stroke="#3D3D3D" stroke-width="3" stroke-miterlimit="10"/>
</g>
</svg>
