<svg width="680" height="240" viewBox="0 0 680 240" fill="none" xmlns="http://www.w3.org/2000/svg">
<g opacity="0.3">
<path d="M385.033 212.86C445.788 288.513 433.667 399.499 358.008 460.259C282.349 521.019 171.365 508.9 110.608 433.245C49.8506 357.589 61.9762 246.609 137.635 185.849C213.294 125.089 324.276 137.205 385.033 212.86Z" stroke="#3D3D3D" stroke-width="3" stroke-miterlimit="10"/>
<path d="M459.812 114.584C508.086 174.695 498.451 262.873 438.34 311.147C378.229 359.421 290.049 349.795 241.775 289.684C193.501 229.573 203.136 141.395 263.247 93.1204C323.359 44.8464 411.54 54.4751 459.812 114.584Z" stroke="#3D3D3D" stroke-width="3" stroke-miterlimit="10"/>
<path d="M506.96 347.146C555.232 407.255 545.6 495.431 485.489 543.705C425.378 591.979 337.198 582.353 288.926 522.244C240.655 462.136 250.284 373.957 310.404 325.677C370.523 277.396 458.686 287.035 506.96 347.146Z" stroke="#3D3D3D" stroke-width="3" stroke-miterlimit="10"/>
</g>
</svg>
