<svg width="120" height="32" viewBox="0 0 120 32" fill="none" xmlns="http://www.w3.org/2000/svg">
<path d="M38.748 12.7089C38.748 10.5562 36.6546 8.26984 33.0323 8.26984C28.9645 8.26984 24.4959 11.2539 23.813 17.207C23.1152 23.2197 26.8563 25.892 30.6272 25.892C34.3983 25.892 36.3727 24.4223 38.3918 22.4627C36.6546 20.2802 34.413 21.2898 33.9825 21.5125C33.5074 21.7499 32.8988 22.0766 31.6516 22.0766C30.1966 22.0766 28.7121 21.4234 28.7121 18.7066C38.0355 17.7862 38.748 14.8614 38.748 12.7089ZM34.1309 13.0652C34.0716 13.7331 33.8044 14.8764 29.0834 15.5146C30.078 11.9814 31.9781 11.7142 32.8542 11.7142C33.6708 11.7142 34.1902 12.3524 34.1309 13.0652ZM18.3347 13.6441C18.3347 13.6441 16.3308 19.9387 16.1672 20.4583C16.1079 19.9239 14.6381 8.62609 14.6381 8.62609C11.2235 8.62609 9.3975 11.0608 8.43258 13.6293C8.43258 13.6293 5.99766 19.9387 5.79 20.473C5.775 19.9832 5.41875 13.7036 5.41875 13.7036C5.21086 10.5559 2.33086 8.64109 0 8.64109L2.8207 25.7584C6.39867 25.7437 8.32852 23.3238 9.3382 20.7552C9.3382 20.7552 11.4907 15.1881 11.5798 14.9357C11.5948 15.1731 13.1238 25.7584 13.1238 25.7584C16.7166 25.7584 18.6466 23.4869 19.6859 21.0077L24.7186 8.64109C21.1702 8.64109 19.2998 11.0608 18.3347 13.6441ZM51.9312 8.24008C49.7191 8.24008 48.0267 9.44266 46.6015 11.2094V11.1946L47.8784 0.90625C44.9388 0.90625 42.5487 3.45977 42.0884 7.26016L39.8613 25.6248C41.554 25.6248 43.3502 25.135 44.3152 23.8879C45.1763 25.0012 46.4679 25.892 48.383 25.892C53.3416 25.892 56.7412 20.1318 56.7412 14.7278C56.7117 9.79891 54.3213 8.24008 51.9312 8.24008ZM51.4711 17.0737C50.9515 20.0873 49.2738 22.1362 47.6555 22.1362C46.0226 22.1362 45.3248 21.4084 45.3248 21.4084C45.6366 18.7659 45.8295 17.1477 46.4234 15.7523C47.0173 14.3568 48.4275 12.1298 49.8973 12.1298C51.3373 12.1298 51.9907 14.0451 51.4711 17.0737ZM69.1228 8.64062H65.6637L65.6787 8.4625C65.9161 6.20594 66.4505 5.01836 68.2172 4.82547C69.4198 4.70664 69.9541 4.08297 70.0877 3.40023C70.1918 2.86586 70.5183 1.00984 70.5183 1.00984C63.5705 0.965312 61.3882 3.96437 60.8241 8.5368L60.8091 8.64086H60.7348C59.6065 8.64086 58.3596 9.9175 58.1517 11.5356L58.0774 12.1295H60.3935L58.4487 28.1929L57.8548 31.0731C57.9291 31.0731 58.0181 31.0879 58.0922 31.0879C61.3437 30.9691 63.4219 28.4008 63.8822 24.6745L65.3965 12.1295H66.4802C67.549 12.1295 68.7963 11.0608 69.019 9.27906L69.1228 8.64062ZM87.1163 8.34391C83.1225 8.34391 79.3516 11.2834 78.1936 15.9004C77.0358 20.5176 78.7875 25.9809 84.6666 25.9809C90.5306 25.9809 93.9157 20.2949 93.9157 15.5589C93.9157 10.8527 90.7238 8.34391 87.1163 8.34391ZM88.7344 16.9248C88.5265 19.018 87.6061 22.1952 85.0823 22.1952C82.5436 22.1952 82.8998 18.4837 83.1523 16.717C83.4194 14.8316 84.4737 12.1443 86.7452 12.1443C88.7789 12.1443 88.9718 14.5642 88.7344 16.9248ZM113.646 13.6438C113.646 13.6438 111.642 19.9384 111.478 20.458C111.419 19.9237 109.949 8.62586 109.949 8.62586C106.535 8.62586 104.709 11.0605 103.744 13.6291C103.744 13.6291 101.309 19.9384 101.101 20.4728C101.086 19.983 100.73 13.7034 100.73 13.7034C100.522 10.5557 97.642 8.64086 95.3112 8.64086L98.1171 25.7582C101.695 25.7434 103.625 23.3235 104.634 20.755C104.634 20.755 106.787 15.1879 106.861 14.9355C106.876 15.1729 108.405 25.7582 108.405 25.7582C111.998 25.7582 113.928 23.4866 114.967 21.0074L120 8.64109C116.467 8.64109 114.596 11.0605 113.646 13.6438ZM72.3891 1.01008L69.4791 24.4816L68.8854 27.3766C68.9595 27.3766 69.0485 27.3916 69.1228 27.3916C72.2552 27.347 74.4823 24.6004 74.8978 21.1413L76.5755 7.67594C77.0803 3.56359 74.6306 1.01031 72.3891 1.01031V1.01008Z" fill="#363636"/>
</svg>
